# xmcd
#
# Track frame offsets:
#	150
#	19118
#	36323
#	55090
#	75237
#	93738
#	117145
#	131985
#	144596
#	167549
#	184689
#	199751
#	222417
#
# Disc length: 3205 seconds
#
# Revision: 0
# Processed by: cddbd v1.5.2PL0 Copyright (c) Steve Scherf et al.
# Submitted via: dBpowerAMP V4.0
#
DISCID=b40c830d
DTITLE=Lacy Younger - Still Wild
DYEAR=2007
DGENRE=Country
TTITLE0=This Ain`t the First Time
TTITLE1=Still Wild
TTITLE2=Here`s to You
TTITLE3=But I Miss You
TTITLE4=I Was Wrong
TTITLE5=Livin` on Memories
TTITLE6=Broken Heart, Broken Bones
TTITLE7=Dead Wrong
TTITLE8=Didn`t I
TTITLE9=This Time
TTITLE10=Let Me In
TTITLE11=Not Forgiving You
TTITLE12=Something You Do
EXTD=
EXTT0=
EXTT1=
EXTT2=
EXTT3=
EXTT4=
EXTT5=
EXTT6=
EXTT7=
EXTT8=
EXTT9=
EXTT10=
EXTT11=
EXTT12=
PLAYORDER=
